<?xml version="1.0" encoding="utf-8"?>
<!-- Generator: Adobe Illustrator 18.0.0, SVG Export Plug-In . SVG Version: 6.00 Build 0)  -->
<!DOCTYPE svg PUBLIC "-//W3C//DTD SVG 1.1//EN" "http://www.w3.org/Graphics/SVG/1.1/DTD/svg11.dtd">
<svg version="1.1" id="图层_1" xmlns="http://www.w3.org/2000/svg" xmlns:xlink="http://www.w3.org/1999/xlink" x="0px" y="0px"
	 viewBox="0 0 595.3 841.9" enable-background="new 0 0 595.3 841.9" xml:space="preserve">
<g>
	<path fill="#FFFFFF" d="M330.6,434.7c-7,5.7-15.3,10.1-24.9,10.1h-16.3v-44.7c0-4.2,2.8-5.6,5.8-6.6v-1.2h-23.8v1.2
		c3,1.1,5.8,2.5,5.8,6.6v41.4c0,4.2-2.8,5.6-5.8,6.7v1.2l54.9,0l5.3-14.4L330.6,434.7z"/>
	<path fill="#FFFFFF" d="M147.8,417.9v-1.1c7.7-1.7,11-6.1,11-12.3c0-7.6-5.3-12.3-19.2-12.3H99.4v1.2c3,1.1,5.8,2.5,5.8,6.6v41.4
		c0,4.2-2.8,5.6-5.8,6.7v1.2h39.2c17.1,0,24.4-6.5,24.4-16.6C162.9,425.1,158.6,419.7,147.8,417.9 M117.4,396.3h15.3
		c10.1,0,13.8,3.7,13.8,9.6c0,6.2-4.1,10.2-13.8,10.2h-15.3V396.3z M133,445.2h-15.6V420H133c12.9,0,17.7,4.7,17.7,12.2
		C150.7,440.2,145.5,445.2,133,445.2"/>
	<path fill="#FFFFFF" d="M478.7,392.3v1.2c3,1.1,5.8,2.5,5.8,6.6v38.4c-2.8-0.9-4.8-3.3-9.7-9.6L446,392.3h-16.5v1.2
		c3,1.1,5.8,2.5,5.8,6.6v41.4c0,4.2-2.8,5.6-5.8,6.7v1.2h17.2v-1.2c-3-1.1-5.8-2.5-5.8-6.7v-37l21.2,27.1
		c13.6,17.4,14.4,17.8,28,17.8v-49.3c0-4.2,2.8-5.6,5.8-6.6v-1.2H478.7z"/>
	<path fill="#FFFFFF" d="M410.6,420.8L410.6,420.8L410.6,420.8c0-15.9-9.9-29.7-34.8-29.7c-24.9,0-34.8,13.8-34.8,29.7v0v0v0v0v0v0
		v0v0v0c0,15.9,9.9,29.7,34.8,29.7C400.7,450.6,410.5,436.8,410.6,420.8L410.6,420.8L410.6,420.8
		C410.6,420.9,410.6,420.9,410.6,420.8C410.6,420.9,410.6,420.9,410.6,420.8L410.6,420.8L410.6,420.8L410.6,420.8
		C410.6,420.8,410.6,420.8,410.6,420.8C410.6,420.8,410.6,420.8,410.6,420.8 M375.8,446.6c-15.3,0-22.6-10.3-22.6-25.7c0,0,0,0,0,0
		v0v0c0,0,0,0,0,0c0-15.5,7.3-25.7,22.6-25.7c15.3,0,22.6,10.3,22.6,25.7c0,0,0,0,0,0v0v0c0,0,0,0,0,0
		C398.4,436.3,391.1,446.6,375.8,446.6"/>
	<path fill="#FFFFFF" d="M252.2,420.8L252.2,420.8c0-15.9-9.9-29.7-34.8-29.7c-24.9,0-34.8,13.8-34.8,29.7h0v0c0,0,0,0,0,0
		c0,0,0,0,0,0v0v0v0c0,0,0,0,0,0c0,0,0,0,0,0v0h0c0,15.9,9.9,29.7,34.8,29.7C242.3,450.6,252.2,436.8,252.2,420.8L252.2,420.8
		L252.2,420.8L252.2,420.8L252.2,420.8L252.2,420.8L252.2,420.8L252.2,420.8L252.2,420.8z M217.4,446.6c-15.3,0-22.6-10.3-22.6-25.7
		v0v0v0v0c0-15.5,7.3-25.7,22.6-25.7s22.6,10.3,22.6,25.7v0v0v0v0C240,436.3,232.7,446.6,217.4,446.6"/>
</g>
</svg>
