<?xml version="1.0" encoding="utf-8"?>
<!DOCTYPE svg PUBLIC "-//W3C//DTD SVG 1.1//EN" "http://www.w3.org/Graphics/SVG/1.1/DTD/svg11.dtd">
<svg version="1.1" id="图形" xmlns="http://www.w3.org/2000/svg" xmlns:xlink="http://www.w3.org/1999/xlink" x="0px" y="0px" width="1024px" height="1024px" viewBox="0 0 1024 1024" enable-background="new 0 0 1024 1024" xml:space="preserve">
  <path fill="#fff" d="M912.526651-55.741144 555.540144 301.287319l356.986507 357.000833c11.171434 11.18576 11.171434 29.257348 0 40.443108-11.20111 11.18576-29.272697 11.18576-40.444131 0L515.096013 341.732473 158.096203 698.732284c-11.187807 11.159154-29.258371 11.159154-40.444131 0-11.186783-11.186783-11.186783-29.286 0-40.47176L474.623229 301.287319 117.623419-55.741144c-11.159154-11.172457-11.159154-29.216415 0-40.443108 11.18576-11.17348 29.284977-11.17348 40.47176 0l357.000833 357.027439 356.985484-357.027439c11.171434-11.17348 29.243021-11.17348 40.444131 0C923.698085-84.957559 923.725714-66.913601 912.526651-55.741144z" transform="translate(0, 812) scale(1, -1)"/>
</svg>
