<?xml version="1.0" encoding="utf-8"?>
<!DOCTYPE svg PUBLIC "-//W3C//DTD SVG 1.1//EN" "http://www.w3.org/Graphics/SVG/1.1/DTD/svg11.dtd">
<svg style="width:308px;height:308px;" version="1.1" id="图形" xmlns="http://www.w3.org/2000/svg" xmlns:xlink="http://www.w3.org/1999/xlink" x="0px" y="0px" width="1024px" height="1024px" viewBox="0 0 1024 1024" enable-background="new 0 0 1024 1024" xml:space="preserve">
  <path class="svgpath" data-index="path_0" fill="#666666" d="M729.980082 436.390975l99.884918 107.724467 97.28572-107.072621-44.617174-0.109494-0.007163 0.109494-29.480428 32.870642C832.34447 279.245935 671.476643 130.859373 476.090651 130.859373c-209.432916 0-379.212718 170.486906-379.212718 380.792703s169.780825 380.791679 379.212718 380.791679c151.85557 0 282.863323-89.632413 343.41849-219.084741l-50.751894 0C711.586153 777.531586 601.18267 848.105944 474.361263 848.105944c-185.52746 0-335.924819-151.025669-335.924819-337.322655 0-186.29801 150.398382-337.324702 335.924819-337.324702 172.82823 0 315.148633 131.068128 333.821925 299.613822l-32.855292-36.56887L729.980082 436.390975z" />

</svg>
