<?xml version="1.0" encoding="utf-8"?>
<!-- Generator: Adobe Illustrator 16.0.0, SVG Export Plug-In . SVG Version: 6.00 Build 0)  -->
<!DOCTYPE svg PUBLIC "-//W3C//DTD SVG 1.1//EN" "http://www.w3.org/Graphics/SVG/1.1/DTD/svg11.dtd">
<svg version="1.1" id="图层_1" xmlns="http://www.w3.org/2000/svg" xmlns:xlink="http://www.w3.org/1999/xlink" x="0px" y="0px"
	 width="15px" height="15px" viewBox="0 0 15 15" enable-background="new 0 0 15 15" xml:space="preserve">
<g>
	<path fill="#FFFFFF" d="M14.146,14.584l-0.604-9.473c-0.016-0.163-0.152-0.284-0.316-0.284H10.69V3.557
		c0-1.754-1.424-3.179-3.178-3.179c-1.756,0-3.179,1.425-3.179,3.179v1.271H1.813c-0.162,0-0.297,0.121-0.316,0.282L0.84,14.646
		c-0.01,0.091,0.018,0.181,0.079,0.248C0.979,14.959,1.065,15,1.156,15h12.682h0.006c0.177,0,0.317-0.145,0.317-0.317
		C14.161,14.646,14.155,14.616,14.146,14.584L14.146,14.584z M4.968,3.557c0-1.403,1.139-2.542,2.544-2.542
		c1.403,0,2.542,1.14,2.542,2.542v1.271H4.968V3.557L4.968,3.557z M1.512,14.364l0.584-8.901h2.237v0.723
		C4.143,6.296,4.015,6.5,4.015,6.736c0,0.351,0.284,0.636,0.636,0.636c0.351,0,0.635-0.286,0.635-0.636
		c0-0.235-0.128-0.439-0.318-0.55V5.463h5.086v0.723C9.863,6.296,9.736,6.5,9.736,6.736c0,0.351,0.286,0.636,0.637,0.636
		s0.636-0.286,0.636-0.636c0-0.235-0.127-0.439-0.318-0.55V5.463h2.252l0.54,8.901H1.512L1.512,14.364z M1.512,14.364"/>
</g>
</svg>
