<?xml version="1.0" encoding="utf-8"?>
<!DOCTYPE svg PUBLIC "-//W3C//DTD SVG 1.1//EN" "http://www.w3.org/Graphics/SVG/1.1/DTD/svg11.dtd">
<svg version="1.1" id="图形" xmlns="http://www.w3.org/2000/svg" xmlns:xlink="http://www.w3.org/1999/xlink" x="0px" y="0px" width="1024px" height="1024px" viewBox="0 0 1024 1024" enable-background="new 0 0 1024 1024" xml:space="preserve">
  <path fill="#272636" d="M509.157376 165.909248c-29.234176 0-57.588736 3.622912-84.631552 10.366976l0.218112 0.592896c-11.89888 3.154944-20.703232 13.585408-20.703232 26.013696 0 14.989312 12.614656 27.106304 28.196864 27.106304 4.091904 0 7.994368-0.874496 11.524096-2.373632l0 0c20.985856-4.840448 42.843136-7.461888 65.394688-7.461888 154.328064 0 279.458816 120.25856 279.458816 268.591104 0 148.365312-125.130752 268.622848-279.458816 268.622848-154.33216 0-279.463936-120.257536-279.463936-268.622848 0-48.715776 13.551616-94.370816 37.16096-133.750784l-0.280576-0.123904c2.561024-4.09088 4.153344-8.83712 4.153344-13.959168 0-14.989312-12.647424-27.10528-28.199936-27.10528-11.741184 0-21.79584 6.868992-26.043392 16.704512-27.449344 46.749696-43.188224 100.712448-43.188224 158.2336 0 178.313216 150.363136 322.835456 335.86176 322.835456 185.493504 0 335.85664-144.52224 335.85664-322.835456C845.014016 310.464256 694.651904 165.909248 509.157376 165.909248zM506.594304 589.799168c-62.301184 0-112.796672-48.559104-112.796672-108.423168 0-17.143808 4.247552-33.289216 11.584512-47.716352-31.352832-28.448768-248.574976-241.206272-196.204544-632.430592 0 0 2.154496-15.296512 29.094912-13.502464 7.625728 0.508928 22.97344 6.106112 22.180864 18.404352-7.948288 114.102272-23.296 383.193088 183.18336 585.24672 17.98656-11.648 39.629824-18.424832 62.957568-18.424832 62.302208 0 112.79872 48.528384 112.79872 108.423168C619.393024 541.23904 568.896512 589.799168 506.594304 589.799168z" transform="translate(0, 812) scale(1, -1)"/>
</svg>
