<?xml version="1.0" encoding="utf-8"?>
<!DOCTYPE svg PUBLIC "-//W3C//DTD SVG 1.1//EN" "http://www.w3.org/Graphics/SVG/1.1/DTD/svg11.dtd">
<svg version="1.1" id="图形" xmlns="http://www.w3.org/2000/svg" xmlns:xlink="http://www.w3.org/1999/xlink" x="0px" y="0px" width="1024px" height="1024px" viewBox="0 0 1024 1024" enable-background="new 0 0 1024 1024" xml:space="preserve">
  <path fill="#272636" d="M758.4 328.16c-39.808 7.744-20.416 29.184-20.416 29.184S776.896 421.6 730.24 468.32c-57.856 57.856-198.528-7.36-198.528-7.36C478.08 444.256 492.288 468.576 499.904 509.856c0 48.704-16.704 131.008-159.744 82.368-142.912-48.896-265.6-220.224-265.6-220.224-85.312-113.856-74.048-201.856-74.048-201.856 21.312-194.304 227.776-247.616 388.288-260.288 168.96-13.184 396.928 58.24 466.048 205.12C924.032 261.984 798.4 320.224 758.4 328.16zM401.344-35.36c-167.68-7.808-303.232 76.224-303.232 188.096 0 112.064 135.552 201.92 303.232 209.6 167.808 7.744 303.616-61.376 303.616-173.184C704.96 77.344 569.152-27.744 401.344-35.36zM367.872 288.608c-168.64-19.776-149.184-177.728-149.184-177.728s-1.728-50.048 45.248-75.52c98.688-53.44 200.32-21.056 251.648 45.184C566.912 146.848 536.832 308.192 367.872 288.608zM325.312 66.848c-31.488-3.712-56.896 14.528-56.896 40.832 0 26.24 22.528 53.696 54.016 56.96 36.16 3.52 59.712-17.344 59.712-43.712C382.208 94.688 356.672 70.432 325.312 66.848zM424.768 151.584c-10.688-7.936-23.808-6.848-29.44 2.688-5.888 9.344-3.648 24.32 7.104 32.128C414.912 195.68 427.968 192.992 433.536 183.712 439.232 174.112 435.2 159.84 424.768 151.584zM840.512 396.576c13.632 0 25.216 10.048 27.136 23.168 0.256 0.96 0.384 1.792 0.384 2.944 20.544 185.216-151.808 153.344-151.808 153.344-15.296 0-27.52-12.352-27.52-27.84 0-15.168 12.16-27.584 27.52-27.584 123.904 27.328 96.512-96.448 96.512-96.448C812.672 408.864 825.216 396.576 840.512 396.576zM820.416 719.904c-59.648 13.952-120.896 1.92-138.048-1.344-1.344-0.128-2.56-1.344-3.776-1.6-0.64-0.128-1.024-0.704-1.024-0.704-16.96-4.8-29.312-20.48-29.312-38.976 0-22.08 17.856-40.192 40.256-40.192 0 0 21.632 2.88 36.352 8.64 14.592 5.888 137.984 4.352 199.296-98.624 33.408-75.136 14.656-125.376 12.352-133.504 0 0-7.936-19.52-7.936-38.72 0-22.144 17.856-36.096 40-36.096 18.56 0 34.112 2.496 38.656 33.856l0.256 0C1073.408 591.904 927.04 695.008 820.416 719.904z" transform="translate(0, 812) scale(1, -1)"/>
</svg>
