<?xml version="1.0" encoding="utf-8"?>
<!DOCTYPE svg PUBLIC "-//W3C//DTD SVG 1.1//EN" "http://www.w3.org/Graphics/SVG/1.1/DTD/svg11.dtd">
<svg version="1.1" id="图形" xmlns="http://www.w3.org/2000/svg" xmlns:xlink="http://www.w3.org/1999/xlink" x="0px" y="0px" width="1024px" height="1024px" viewBox="0 0 1024 1024" enable-background="new 0 0 1024 1024" xml:space="preserve">
  <path fill="#272636" d="M674.668847 395.819322 365.060393 395.819322 568.949037 360.873416 349.96151 182.387325 682.219823 182.387325 485.879086 224.884209ZM513.136893 746.814372c-246.223844 0-445.853487-199.629643-445.853487-445.853487s199.629643-445.829951 445.853487-445.829951 445.806415 199.606107 445.806415 445.829951S759.360737 746.814372 513.136893 746.814372zM802.99349 380.812537l-113.315812-96.039333 37.654598-241.777579c-7.547907-7.550976-7.733125-7.550976-15.307637-7.550976l-196.710151 120.890324L318.185806 35.444649c-15.098883 0-16.650215 0-16.650215 7.550976l27.117614 241.777579L209.155601 390.538039l-40.853453 28.995381-11.556197 0 0 1.249457 11.556197-1.249457 106.113783 0 128.393205 0 30.221302 53.82079 75.498508 159.611208c7.547907 0 7.547907 0 15.122419 0L606.697779 473.35421l30.222325-53.82079 128.369669 0 75.522044 0c7.550976 0 7.550976 4.399193 7.550976-3.149736L802.99349 380.812537z" transform="translate(0, 812) scale(1, -1)"/>
</svg>
