<?xml version="1.0" encoding="utf-8"?>
<!DOCTYPE svg PUBLIC "-//W3C//DTD SVG 1.1//EN" "http://www.w3.org/Graphics/SVG/1.1/DTD/svg11.dtd">
<svg version="1.1" id="图形" xmlns="http://www.w3.org/2000/svg" xmlns:xlink="http://www.w3.org/1999/xlink" x="0px" y="0px" width="1024px" height="1024px" viewBox="0 0 1024 1024" enable-background="new 0 0 1024 1024" xml:space="preserve">
  <path fill="#ffffff" d="M1013.412864-100.49152l-198.90176 198.892544c53.272576 73.8304 84.666368 164.492288 84.666368 262.488064 0 248.011776-201.056256 449.081344-449.088512 449.081344-248.018944 0-449.088512-201.069568-449.088512-449.081344 0-248.018944 201.069568-449.088512 449.088512-449.088512 97.999872 0 188.660736 31.39584 262.490112 84.667392L911.475712-202.428672c14.075904-14.06976 36.895744-14.06976 50.971648 0l50.965504 50.965504C1027.488768-137.393408 1027.488768-114.573568 1013.412864-100.49152zM129.318912 360.888064c0 177.159168 143.618048 320.777216 320.777216 320.777216s320.771072-143.618048 320.771072-320.777216c0-177.165312-143.611904-320.78336-320.771072-320.78336S129.318912 183.723776 129.318912 360.888064z" transform="translate(0, 812) scale(1, -1)"/>
</svg>
