<?xml version="1.0" encoding="utf-8"?>
<!DOCTYPE svg PUBLIC "-//W3C//DTD SVG 1.1//EN" "http://www.w3.org/Graphics/SVG/1.1/DTD/svg11.dtd">
<svg style="width:308px;height:308px;" version="1.1" id="图形" xmlns="http://www.w3.org/2000/svg" xmlns:xlink="http://www.w3.org/1999/xlink" x="0px" y="0px" width="1024px" height="1024px" viewBox="0 0 1024 1024" enable-background="new 0 0 1024 1024" xml:space="preserve">
  <path class="svgpath" data-index="path_0" fill="#ffffff" d="M508.204032 64.3072c16.67584 0 33.362944 1.993728 49.78176 5.846016 16.432128 3.864576 31.98976 9.091072 46.42816 15.556608 14.439424 6.59968 27.249664 14.07488 38.576128 22.412288 11.205632 8.337408 20.041728 16.674816 26.387456 25.012224 15.058944 19.166208 26.008576 40.071168 32.985088 63.102976 6.843392 22.897664 11.813888 44.798976 14.682112 65.703936 2.855936 23.894016 4.352 48.044032 4.352 72.436736 3.986432 2.99008 7.218176 6.842368 9.587712 11.570176 2.23744 4.22912 4.108288 9.577472 5.604352 16.18944 1.360896 6.587392 1.615872 14.560256 0.36352 24.137728-1.118208 12.445696-3.6096 22.53312-7.340032 29.996032-3.73248 7.340032-7.9616 13.19936-12.567552 17.42848-5.226496 4.71552-10.707968 7.960576-16.432128 9.82016-2.855936 10.088448-5.846016 19.664896-8.71424 28.634112-2.855936 7.7056-6.222848 15.301632-9.954304 22.775808-3.73248 7.462912-7.960576 13.188096-12.566528 17.417216-10.950656 8.956928-19.908608 16.55296-26.88512 22.776832-6.964224 6.355968-11.570176 16.929792-13.805568 31.732736-1.750016 8.969216-2.369536 18.049024-1.750016 27.260928 0.61952 9.33376 2.99008 18.535424 7.340032 27.748352 4.364288 9.211904 10.950656 18.048 19.919872 26.397696 8.957952 8.337408 21.525504 15.80032 37.701632 22.386688 14.4384 5.979136 30.251008 11.327488 47.301632 16.06656 17.051648 4.8384 33.594368 10.331136 49.782784 16.553984 16.177152 6.221824 30.482432 14.050304 42.927104 23.262208 12.445696 9.212928 21.281792 21.902336 26.386432 37.968896 2.99008 9.577472 5.10464 21.39136 6.59968 35.34336 1.373184 14.050304 2.11456 28.246016 2.11456 42.441728 0 14.30528-0.997376 27.747328-2.99008 40.313856-2.11456 12.445696-5.093376 22.035456-9.20064 28.621824-2.868224 4.108288-11.083776 8.338432-24.64768 12.445696-13.563904 4.230144-30.359552 8.215552-50.280448 12.081152-19.907584 3.987456-42.185728 7.341056-66.711552 10.331136-24.636416 2.99008-49.284096 5.469184-74.176512 7.583744-24.757248 2.113536-48.652288 3.74272-71.428096 4.982784-22.897664 1.118208-42.69568 1.737728-59.37152 1.737728-16.795648 0-36.339712-0.61952-58.496-1.737728-22.278144-1.240064-45.297664-2.869248-68.948992-4.982784-23.63904-2.11456-47.290368-4.472832-70.68672-7.098368-23.396352-2.721792-44.556288-5.59104-63.722496-8.580096-19.033088-2.99008-35.221504-5.98016-48.530432-8.836096-13.19936-2.99008-21.6576-5.967872-25.146368-8.957952-5.72416-4.861952-10.20928-19.422208-13.320192-43.813888-3.232768-24.51456-1.859584-56.127488 3.864576-94.836736 2.85696-22.023168 11.449344-38.95296 25.510912-50.52416 14.183424-11.70432 30.615552-20.917248 49.405952-27.747328 18.801664-6.854656 38.33344-12.955648 58.496-18.304 20.28544-5.348352 38.211584-13.19936 53.769216-23.274496 12.189696-7.717888 21.402624-15.179776 27.747328-22.4 6.355968-7.098368 10.962944-14.316544 13.81888-21.414912 2.99008-7.2192 4.350976-14.56128 4.350976-22.386688 0-7.730176-0.242688-16.311296-0.863232-25.887744-1.118208-13.698048-5.725184-24.64768-13.81888-32.620544-8.082432-8.083456-17.051648-16.28672-26.884096-24.636416-4.605952-4.22912-8.71424-9.954304-12.068864-17.417216-3.487744-7.474176-6.720512-15.070208-9.577472-22.775808-2.868224-8.97024-5.737472-18.545664-8.71424-28.634112-3.986432-1.23904-8.09472-3.354624-12.081152-6.34368-3.47648-2.99008-7.206912-7.098368-11.3152-12.445696-3.986432-5.348352-7.4752-13.19936-10.331136-23.262208-3.487744-10.088448-4.861952-19.422208-3.986432-27.759616s2.491392-15.435776 4.849664-21.414912c2.248704-6.587392 5.979136-12.81024 11.205632-18.7904-0.498688-22.654976 0.61952-45.297664 3.487744-67.940352 2.358272-19.178496 6.465536-39.718912 12.566528-61.741056 6.100992-22.023168 15.179776-41.688064 27.249664-58.994688 11.083776-16.674816 23.274496-30.23872 36.849664-40.690688 13.68576-10.452992 27.503616-18.668544 41.688064-24.64768 14.061568-5.967872 28.246016-9.942016 42.440704-12.068864C481.19808 65.304576 494.896128 64.3072 508.204032 64.3072" />

</svg>
