<?xml version="1.0" encoding="utf-8"?>
<!DOCTYPE svg PUBLIC "-//W3C//DTD SVG 1.1//EN" "http://www.w3.org/Graphics/SVG/1.1/DTD/svg11.dtd">
<svg style="width:308px;height:308px;" version="1.1" id="图形" xmlns="http://www.w3.org/2000/svg" xmlns:xlink="http://www.w3.org/1999/xlink" x="0px" y="0px" width="1024px" height="1024px" viewBox="0 0 1024 1024" enable-background="new 0 0 1024 1024" xml:space="preserve">
  <path class="svgpath" data-index="path_0" fill="#fff" d="M888.305505 190.727902c15.614629-15.616676 40.930201-15.616676 56.544831 0l0 0c15.616676 15.614629 15.616676 40.930201 0 56.544831L539.117614 653.006478c-15.614629 15.616676-40.928155 15.616676-56.544831 0l0 0c-15.614629-15.614629-15.614629-40.930201 0-56.544831L888.305505 190.727902 888.305505 190.727902zM538.619264 596.461647c15.616676 15.614629 15.616676 40.930201 0 56.544831l0 0c-15.614629 15.616676-40.928155 15.616676-56.544831 0L76.340689 247.272733c-15.614629-15.614629-15.614629-40.930201 0-56.544831l0 0c15.616676-15.616676 40.930201-15.616676 56.546877 0L538.619264 596.461647 538.619264 596.461647zM538.619264 596.461647" />

</svg>
