<?xml version="1.0" encoding="utf-8"?>
<!DOCTYPE svg PUBLIC "-//W3C//DTD SVG 1.1//EN" "http://www.w3.org/Graphics/SVG/1.1/DTD/svg11.dtd">
<svg style="width:308px;height:308px;" version="1.1" id="图形" xmlns="http://www.w3.org/2000/svg" xmlns:xlink="http://www.w3.org/1999/xlink" x="0px" y="0px" width="1024px" height="1024px" viewBox="0 0 1024 1024" enable-background="new 0 0 1024 1024" xml:space="preserve">
  <path class="svgpath" data-index="path_0" fill="#000000" d="M512.583314 9.142857c-277.736229 0-502.857143 225.1392-502.857143 502.857143 0 277.736229 225.120914 502.857143 502.857143 502.857143s502.857143-225.120914 502.857143-502.857143C1015.440457 234.282057 790.319543 9.142857 512.583314 9.142857L512.583314 9.142857zM512.583314 943.019886C274.9056 943.019886 81.563429 749.677714 81.563429 512c0-237.661257 193.342171-431.019886 431.019886-431.019886S943.6032 274.338743 943.6032 512C943.6032 749.677714 750.262857 943.019886 512.583314 943.019886L512.583314 943.019886z" />
<path class="svgpath" data-index="path_1" fill="#000000" d="M420.677486 743.149714c-2.770286 0-5.5424-0.6656-8.1024-1.963886-6.0672-3.051886-9.856-9.259886-9.856-15.994514L402.719086 314.671543c0-6.6816 3.717486-12.820114 9.645714-15.9232 5.893486-3.086629 13.083429-2.631314 18.554514 1.175771l287.3472 199.899429c4.770743 3.3152 7.647086 8.735086 7.7184 14.520686 0.069486 5.807543-2.666057 11.278629-7.332571 14.716343L431.305143 739.642514C428.149029 741.957486 424.429714 743.149714 420.677486 743.149714z" />

</svg>
