<?xml version="1.0" standalone="no"?><!DOCTYPE svg PUBLIC "-//W3C//DTD SVG 1.1//EN" "http://www.w3.org/Graphics/SVG/1.1/DTD/svg11.dtd"><svg t="1490693854523" class="icon" style="" viewBox="0 0 1024 1024" version="1.1" xmlns="http://www.w3.org/2000/svg" p-id="1378" xmlns:xlink="http://www.w3.org/1999/xlink" width="40" height="40"><defs><style type="text/css"></style></defs><path d="M825.6 857.6c-8 0-16.4-3.2-22.8-9.2l-297.2-297.2-297.2 297.2c-12.4 12.4-32.8 12.4-45.2 0-12.4-12.4-12.4-32.8 0-45.2l297.2-297.2L163.2 208.4c-12.4-12.4-12.4-32.8 0-45.2 12.4-12.4 32.8-12.4 45.2 0l297.2 297.2 297.2-297.2c12.4-12.4 32.8-12.4 45.2 0 12.4 12.4 12.4 32.8 0 45.2l-297.2 297.2 297.2 297.2c12.4 12.4 12.4 32.8 0 45.2C842 854.4 834 857.6 825.6 857.6z" p-id="1379" fill="#ffffff"></path></svg>