<?xml version="1.0" encoding="utf-8"?>
<!-- Generator: Adobe Illustrator 16.0.0, SVG Export Plug-In . SVG Version: 6.00 Build 0)  -->
<!DOCTYPE svg PUBLIC "-//W3C//DTD SVG 1.1//EN" "http://www.w3.org/Graphics/SVG/1.1/DTD/svg11.dtd">
<svg version="1.1" id="图层_1" xmlns="http://www.w3.org/2000/svg" xmlns:xlink="http://www.w3.org/1999/xlink" x="0px" y="0px"
	 width="750px" height="249px" viewBox="0 0 750 249" enable-background="new 0 0 750 249" xml:space="preserve">
<path fill="#040000" d="M238.5,55"/>
<path fill="#040000" d="M248.167,55l-16.75,47.917c0,0,54.708-23,76.042-28.333C307.458,74.583,313,61,319,49h8c0,0-7,13-11,23
	l2,0.333c0,0-3,5-3.667,7.333l-2.333,1c0,0-9,28.667-20.333,69c0,0-1.333,4.333-4,5c0,0-6.083-2.417,15.917-71.417
	c0,0-59.25,19.083-75.917,28.083c0,0-15.676,48-20.333,52.667c0,0-6.313,5.333-4.657-2l13.99-45l-3.333-0.333l6.333-8.417
	L237.792,55H248.167z"/>
<path fill="#040000" d="M389.417,59.25c0,0,5.624-8.958,5.624,2.708c0,0-8.604,34.688-8.646,36.021s6.782-4.322,41.053-20.302
	c0,0,1.391-7.349,3.224-14.516c0,0,4.831-1.414,5.831,3.211l-4.085,8.293c0,0,1.215,0.89,7.215-2.777l0.055-3.857
	c0,0-2.188-2.844,0.906-1.156L447.688,74c0,0-3.188-0.125-16.938,6.25c0,0-2.473,14.255-6.25,37.5c0,0-3.75,5.125-4-1.625
	c0,0-0.906-3.969,5.25-34c0,0-30.916,14.708-40.75,21.208c0,0-17.667,109.333-69,121.5c0,0-25,4.667-33.063-11.646
	c-2.875-8.666-1.619-21.099,7.5-32.688c3.972-5.048,9.229-10.833,17.229-18.5c0,0-25.667,30.023-20.333,47
	c0,0,3,15.667,29.333,9.667c0,0,40.667-3.333,62.333-111.23c0,0-29.333,16.23-57,40.563c0,0,8.333-16.333,58-45.874
	C380,102.126,388.5,67.167,389.417,59.25z"/>
<path fill="#040000" d="M417,62c0,0,44-18,46.25-11.25c0,0,2.5,2.25-4,2.25c0,0-34,9.25-36.25,11.75C423,64.75,418.5,67,417,62z"/>
<path fill="#040000" d="M467.5,60.25c0,0-16.25,13.5-8.5,18c0,0,4.25,2,13.5-16c0,0,5-1.74,1.75,3.005c0,0-5.5,10.495-1,14.745
	c0,0,7,2,12.25-7c0,0,4.5-19.5,11.75-18c0,0,2,1-2.25,6s-7.25,13.25-4,14.5c0,0,5,4.75,10-3.5c0,0,2,0.75,0,5
	c0,0-5.25,9.25-14.25-0.5c0,0-13.75,13.5-18.75-1c0,0-5.939,7.929-11.095,6.714S448.945,72,463.723,60
	C463.723,60,465.75,58.75,467.5,60.25z"/>
<path fill="#040000" d="M546.501,30c0,0,2.437,16.563-9.065,41.702c0,0,4.731,0.631,5.898,0.798c0,0,9.299-23.085,8.167-45.499
	C551.501,27.001,549.001,28.5,546.501,30z"/>
<path fill="#040000" d="M536.701,74.948c-1.409,0.356-4.932,4.21-0.567,5.789c1.177,0.425,4.126,0.572,4.368-2.451
	C540.688,75.969,538.162,74.579,536.701,74.948z"/>
<path fill="#040000" d="M514.5,50.093c-7.813,3.938-11.938,17.718-11.938,17.718c-1.063,0.313-3.938,0.971-3.938,0.971L502.667,69
	c-0.167,15,12.667,13.024,16.167,10.024s1.666-4.013,1.666-4.013c-16.334,7-13.813-5.926-13.813-5.926
	c12.063-1.375,16.875-9.227,16.875-9.227C526.313,52.546,525.063,47.53,514.5,50.093z M508.25,65.271c0,0,1-7.436,11.75-10.353
	C520,54.917,520.25,61.541,508.25,65.271z"/>
<path fill="#040000" d="M370.75,86.875c-0.625-1.375,1.625-7,1.625-7c3.5-3.125,0.958-3.875,0.958-3.875
	c-2.667-1-6.333,6.333-6.333,6.333c-5,4.333-20.313,13.792-20.313,13.792c-10.75,6.938-10.021-0.458-10.021-0.458
	C348,93,367.667,75,353.333,69.333C335,68.667,332.583,91,332.583,91c-5.667,2.333-9.083,0-9.083,0c0.833,8,9.5,6,9.5,6
	c2.844,6.406,7.525,5.87,10.656,5.031C352.375,99.719,366.5,86.25,366.5,86.25c-2.375,13.375,7.125,7.75,7.125,7.75
	c8-8.125,12.75-27.625,12.75-27.625C374.75,85.5,370.75,86.875,370.75,86.875z M353,72.5c0,0,6.25,9.75-15.5,17.75
	C337.5,90.25,339.583,77.25,353,72.5z"/>
</svg>
