<?xml version="1.0" encoding="utf-8"?>
<!-- Generator: Adobe Illustrator 16.0.0, SVG Export Plug-In . SVG Version: 6.00 Build 0)  -->
<!DOCTYPE svg PUBLIC "-//W3C//DTD SVG 1.1//EN" "http://www.w3.org/Graphics/SVG/1.1/DTD/svg11.dtd">
<svg version="1.1" id="图层_1" xmlns="http://www.w3.org/2000/svg" xmlns:xlink="http://www.w3.org/1999/xlink" x="0px" y="0px"
	 width="64px" height="74px" viewBox="-7 -12 64 74" enable-background="new -7 -12 64 74" xml:space="preserve">
<circle cx="25.083" cy="25" r="21.5"/>
<g>
	<path fill-rule="evenodd" clip-rule="evenodd" fill="#FFFFFF" d="M28.756,22.198c0.239,0,0.474,0.018,0.709,0.043
		c-0.636-2.959-3.802-5.159-7.413-5.159c-4.038,0-7.346,2.752-7.346,6.247c0,2.018,1.101,3.675,2.94,4.96l-0.735,2.21l2.567-1.289
		c0.92,0.182,1.657,0.37,2.574,0.37c0.23,0,0.459-0.012,0.686-0.029c-0.144-0.492-0.226-1.007-0.226-1.539
		C22.511,24.803,25.266,22.198,28.756,22.198L28.756,22.198z M24.806,20.207c0.553,0,0.919,0.363,0.919,0.916
		c0,0.55-0.366,0.919-0.919,0.919c-0.55,0-1.103-0.369-1.103-0.919C23.704,20.57,24.256,20.207,24.806,20.207L24.806,20.207z
		 M19.666,22.042c-0.551,0-1.106-0.369-1.106-0.919c0-0.553,0.556-0.916,1.106-0.916c0.551,0,0.917,0.363,0.917,0.916
		C20.583,21.673,20.216,22.042,19.666,22.042L19.666,22.042z"/>
	<path fill-rule="evenodd" clip-rule="evenodd" fill="#FFFFFF" d="M35.461,27.924c0-2.937-2.938-5.331-6.241-5.331
		c-3.494,0-6.247,2.394-6.247,5.331c0,2.942,2.752,5.331,6.247,5.331c0.733,0,1.472-0.186,2.205-0.369l2.016,1.104l-0.553-1.835
		C34.362,31.048,35.461,29.581,35.461,27.924L35.461,27.924z M27.195,27.005c-0.365,0-0.735-0.364-0.735-0.735
		c0-0.366,0.37-0.734,0.735-0.734c0.557,0,0.92,0.368,0.92,0.734C28.115,26.641,27.752,27.005,27.195,27.005L27.195,27.005z
		 M31.236,27.005c-0.363,0-0.729-0.364-0.729-0.735c0-0.366,0.366-0.734,0.729-0.734c0.55,0,0.919,0.368,0.919,0.734
		C32.155,26.641,31.786,27.005,31.236,27.005L31.236,27.005z"/>
</g>
</svg>
