<?xml version="1.0" encoding="utf-8"?>
<!-- Generator: Adobe Illustrator 16.0.0, SVG Export Plug-In . SVG Version: 6.00 Build 0)  -->
<!DOCTYPE svg PUBLIC "-//W3C//DTD SVG 1.1//EN" "http://www.w3.org/Graphics/SVG/1.1/DTD/svg11.dtd">
<svg version="1.1" id="图层_1" xmlns="http://www.w3.org/2000/svg" xmlns:xlink="http://www.w3.org/1999/xlink" x="0px" y="0px"
	 width="95px" height="55px" viewBox="0 0 95 55" enable-background="new 0 0 95 55" xml:space="preserve">
<g>
	<rect x="69.033" y="18.676" width="2.61" height="16.562"/>
	<rect x="92.409" y="18.676" width="2.61" height="16.562"/>
	<path d="M87.647,32.909c0.506-0.774,0.766-1.623,0.766-2.517c0-0.436-0.097-0.913-0.274-1.374
		c-0.789-2.154-4.926-3.129-6.175-3.378c-0.107-0.019-0.22-0.038-0.33-0.062l-0.126-0.025c-1.524-0.342-2.802-1.087-3.188-1.868
		c-0.155-0.328-0.186-0.653-0.189-0.746c0.028-2.754,3.47-2.845,3.617-2.847l0.035,0l0.026-0.001
		c0.028,0.001,0.053,0.001,0.076,0.002l0.047,0.004c1.223,0.034,2.117,0.455,2.665,1.246c0.699,1.013,0.73,2.259,0.725,2.616
		l2.537-1.097l-0.008-0.049c-0.116-0.678-0.365-1.308-0.735-1.873c-0.511-0.771-1.245-1.362-2.187-1.759
		c-0.922-0.387-2.001-0.586-3.2-0.586c-1.093,0-2.101,0.19-2.998,0.558c-0.921,0.377-1.63,0.942-2.111,1.675
		c-0.473,0.729-0.715,1.521-0.715,2.357c0,0.765,0.2,1.468,0.594,2.086c0.392,0.623,0.992,1.147,1.785,1.559
		c0.353,0.187,1.357,0.665,3.094,1.082c1.413,0.338,2.333,0.589,2.736,0.746c0.112,0.044,0.225,0.092,0.34,0.144
		c0.624,0.344,1.008,0.69,1.208,1.099c0.17,0.358,0.195,0.723,0.198,0.792c-0.026,2.798-3.541,2.831-3.688,2.831l-0.037-0.003
		l-0.027,0.003c-0.039,0-0.06-0.003-0.082-0.005l-0.049-0.002c-1.261-0.036-2.213-0.422-2.834-1.148
		c-0.871-1.019-0.822-2.417-0.788-2.803l-2.71,1.17l0.009,0.054c0.125,0.726,0.39,1.399,0.785,2c0.546,0.825,1.333,1.458,2.334,1.88
		c0.987,0.414,2.137,0.626,3.419,0.626c1.168,0,2.245-0.2,3.207-0.598C86.376,34.294,87.133,33.693,87.647,32.909z"/>
	<polygon points="12.963,35.237 12.963,18.676 10.353,18.676 10.353,25.758 2.61,25.758 2.61,18.676 0,18.676 0,35.237 2.61,35.237 
		2.61,27.163 10.353,27.163 10.353,35.237 	"/>
	<path d="M36.341,18.676v16.562h2.611v-8.062h6.871c1.055,0,1.359-1.408,1.359-1.408h-8.23v-5.687h9.654v-1.406H36.341z"/>
	<path d="M55.505,27.106h7.038c0.604-0.021,0.955-0.508,1.145-0.904l0.037-0.088c0.091-0.209,0.133-0.375,0.137-0.401h-8.356v-5.631
		h9.051v-1.406H52.892v16.562h12.073v-1.406h-9.46V27.106z"/>
	<path d="M25.423,18.676h-1.868l-3.582,9.462l-0.005-0.004l-2.682,7.095c0,0,1.827,0.287,2.335-1.06l2.027-5.354l-0.002-0.002
		l2.55-7.012l5.23,13.437h2.676L25.423,18.676z"/>
</g>
</svg>
