<?xml version="1.0" encoding="utf-8"?>
<!-- Generator: Adobe Illustrator 16.0.0, SVG Export Plug-In . SVG Version: 6.00 Build 0)  -->
<!DOCTYPE svg PUBLIC "-//W3C//DTD SVG 1.1//EN" "http://www.w3.org/Graphics/SVG/1.1/DTD/svg11.dtd">
<svg version="1.1" id="图层_1" xmlns="http://www.w3.org/2000/svg" xmlns:xlink="http://www.w3.org/1999/xlink" x="0px" y="0px"
	 width="50px" height="50px" viewBox="0 0 50 50" enable-background="new 0 0 50 50" xml:space="preserve">
<circle fill="#030000" cx="25.125" cy="25.375" r="25"/>
<g>
	<path fill="#FFFFFF" d="M33.777,24.099h-0.15c-2.497,0-2.917,1.717-2.917,2.579h2.517h0.15c2.498,0,2.919-1.718,2.919-2.579H33.777
		z"/>
	<path fill="#FFFFFF" d="M38.04,19.218c0,1.081-0.625,2.578-3.067,2.578h-3.97c-1.15,0-2.037,0.198-2.037,1.765v3.892
		c0,2.188-1.642,4.078-4.418,4.078h-5.833c-3.377,0-6.505-2.23-6.505-6.155c0-3.926,3.188-6.132,7.25-6.132h1.662
		c1.512,0,4.115,0.659,4.115,3.655c0,2.996-2.446,3.779-4.025,3.779h-4.039c0,0-0.153-2.579,2.918-2.579h1.076
		c0.654,0,1.491-0.226,1.491-1.2c0-0.975-1.177-1.092-1.875-1.092h-1.28c-2.195,0-4.764,0.613-4.764,3.457
		c0,2.842,1.966,3.684,4.743,3.684h4.939c1.458,0,2.015-0.477,2.015-1.643v-3.743c0-1.795,0.852-4.317,4.332-4.317
		C34.251,19.244,38.04,19.218,38.04,19.218"/>
	<path fill="#FFFFFF" d="M21.446,24.099L21.446,24.099h-0.279h-0.119H20.97h-0.878c-3.072,0-2.918,2.579-2.918,2.579h4.039
		c1.58,0,4.025-0.783,4.025-3.779C25.237,24.203,22.453,24.099,21.446,24.099"/>
	<path fill="#FFFFFF" d="M28.966,27.453v-3.892c0-0.078,0.004-0.151,0.007-0.223v-0.014c0-1.92-0.255-4.08,1.796-4.08
		c-3.48,0-4.332,2.522-4.332,4.317v3.743c0,0.102-0.009,0.189-0.017,0.279c0,0.039,0.002,0.078,0.002,0.117
		c0,3.588-1.874,3.83-1.874,3.83C27.324,31.531,28.966,29.641,28.966,27.453"/>
</g>
</svg>
