<?xml version="1.0" encoding="utf-8"?>
<!-- Generator: Adobe Illustrator 16.0.0, SVG Export Plug-In . SVG Version: 6.00 Build 0)  -->
<!DOCTYPE svg PUBLIC "-//W3C//DTD SVG 1.1//EN" "http://www.w3.org/Graphics/SVG/1.1/DTD/svg11.dtd">
<svg version="1.1" id="图层_1" xmlns="http://www.w3.org/2000/svg" xmlns:xlink="http://www.w3.org/1999/xlink" x="0px" y="0px"
	 width="13px" height="13px" viewBox="0 0 13 13" enable-background="new 0 0 13 13" xml:space="preserve">
<path d="M6.501,12.989c-3.584,0-6.49-2.904-6.49-6.488s2.906-6.49,6.49-6.49s6.488,2.906,6.488,6.49S10.085,12.989,6.501,12.989z
	 M6.501,0.713c-3.197,0-5.789,2.591-5.789,5.789s2.591,5.788,5.789,5.788c3.197,0,5.789-2.592,5.789-5.788
	C12.29,3.305,9.698,0.713,6.501,0.713z M10.711,7.028c-0.29,0-0.526-0.236-0.526-0.526s0.236-0.526,0.526-0.526
	c0.291,0,0.526,0.236,0.526,0.526S11.002,7.028,10.711,7.028z M9.104,3.896c-0.203-0.205-0.203-0.539,0-0.744
	c0.207-0.205,0.539-0.205,0.745,0c0.206,0.207,0.206,0.539,0,0.744C9.644,4.102,9.312,4.102,9.104,3.896z M6.501,10.886
	c-0.484,0-0.877-0.391-0.877-0.877c0-0.299,0.148-0.561,0.377-0.719l0.324-4.543c0-0.162,0.352-0.168,0.352,0L7.001,9.29
	c0.229,0.158,0.378,0.42,0.378,0.719C7.379,10.495,6.985,10.886,6.501,10.886z M6.501,2.817c-0.291,0-0.526-0.236-0.526-0.525
	c0-0.291,0.235-0.526,0.526-0.526s0.525,0.235,0.525,0.526C7.028,2.581,6.792,2.817,6.501,2.817z M3.151,3.896
	c-0.205-0.205-0.205-0.539,0-0.744c0.207-0.205,0.539-0.205,0.744,0c0.206,0.207,0.206,0.539,0,0.744
	C3.69,4.102,3.358,4.102,3.151,3.896z M2.29,7.028c-0.291,0-0.525-0.236-0.525-0.526S1.999,5.976,2.29,5.976
	s0.527,0.236,0.527,0.526S2.581,7.028,2.29,7.028z"/>
</svg>
