<?xml version="1.0" encoding="utf-8"?>
<!-- Generator: Adobe Illustrator 16.0.0, SVG Export Plug-In . SVG Version: 6.00 Build 0)  -->
<!DOCTYPE svg PUBLIC "-//W3C//DTD SVG 1.1//EN" "http://www.w3.org/Graphics/SVG/1.1/DTD/svg11.dtd">
<svg version="1.1" id="图层_1" xmlns="http://www.w3.org/2000/svg" xmlns:xlink="http://www.w3.org/1999/xlink" x="0px" y="0px"
	 width="13px" height="13px" viewBox="0 0 13 13" enable-background="new 0 0 13 13" xml:space="preserve">
<path fill="#272636" d="M8.775,5.85c-0.896,0-1.625-0.729-1.625-1.625c0-0.896,0.729-1.625,1.625-1.625
	c0.895,0,1.625,0.729,1.625,1.625C10.4,5.121,9.67,5.85,8.775,5.85z M8.775,3.25C8.237,3.25,7.8,3.688,7.8,4.225
	S8.237,5.2,8.775,5.2c0.537,0,0.975-0.438,0.975-0.975S9.313,3.25,8.775,3.25L8.775,3.25z M0.326,13
	c-0.086-0.001-0.169-0.035-0.23-0.096c-0.089-0.089-0.119-0.223-0.075-0.34c1-2.75,2.052-4.145,3.125-4.145
	C3.5,8.42,3.83,8.571,4.13,8.87c0.473,0.474,0.49,0.944,0.421,1.257c-0.217,0.98-1.601,1.939-4.114,2.854
	C0.401,12.993,0.364,13,0.326,13L0.326,13z M3.146,9.068c-0.322,0-0.701,0.282-1.095,0.816c-0.388,0.523-0.778,1.271-1.162,2.227
	c0.868-0.349,1.565-0.703,2.079-1.056c0.693-0.477,0.899-0.845,0.949-1.069c0.05-0.226-0.03-0.441-0.246-0.656
	C3.495,9.154,3.323,9.069,3.146,9.068L3.146,9.068z M12.674,0c-1.686,0-3.188,0.286-4.467,0.85C7.153,1.316,6.251,1.969,5.525,2.792
	c-0.132,0.15-0.258,0.305-0.377,0.465c-0.561,0.037-1.134,0.26-1.706,0.663C2.958,4.26,2.473,4.731,1.997,5.321
	C1.197,6.312,0.706,7.289,0.685,7.329c-0.071,0.143-0.028,0.315,0.1,0.408c0.056,0.04,0.122,0.062,0.19,0.062
	c0.086,0,0.168-0.033,0.229-0.094c0.003-0.004,0.314-0.309,0.844-0.608c0.437-0.247,1.11-0.538,1.924-0.589
	c0.206,0.527,0.795,1.158,1.078,1.44s0.913,0.872,1.44,1.078C6.44,9.841,6.15,10.514,5.903,10.951
	c-0.3,0.529-0.605,0.84-0.608,0.843c-0.112,0.112-0.126,0.29-0.034,0.419c0.063,0.088,0.162,0.136,0.264,0.136
	c0.049,0,0.099-0.011,0.145-0.034c0.041-0.021,1.018-0.512,2.009-1.312c0.589-0.476,1.062-0.962,1.401-1.446
	c0.403-0.572,0.625-1.145,0.663-1.705c0.16-0.119,0.315-0.245,0.465-0.377c0.823-0.727,1.476-1.628,1.94-2.682
	c0.564-1.278,0.851-2.781,0.851-4.467V0L12.674,0L12.674,0z M2.02,6.375c0.62-0.898,1.566-2.013,2.634-2.364
	C4.232,4.75,4.014,5.429,3.935,5.859C3.182,5.905,2.532,6.125,2.02,6.375z M6.625,10.979c0.251-0.513,0.47-1.161,0.515-1.914
	C7.57,8.986,8.25,8.768,8.988,8.347C8.637,9.412,7.523,10.359,6.625,10.979L6.625,10.979z M9.778,6.987
	C8.427,8.18,7.026,8.449,6.825,8.449c-0.001,0-0.135-0.002-0.493-0.255c-0.25-0.177-0.542-0.427-0.82-0.705
	c-0.278-0.278-0.529-0.57-0.705-0.82C4.554,6.31,4.551,6.177,4.551,6.176c0-0.202,0.27-1.602,1.462-2.954
	c1.427-1.617,3.612-2.501,6.333-2.567C12.281,3.376,11.396,5.561,9.778,6.987L9.778,6.987z"/>
</svg>
