<?xml version="1.0" encoding="utf-8"?>
<!-- Generator: Adobe Illustrator 16.0.0, SVG Export Plug-In . SVG Version: 6.00 Build 0)  -->
<!DOCTYPE svg PUBLIC "-//W3C//DTD SVG 1.1//EN" "http://www.w3.org/Graphics/SVG/1.1/DTD/svg11.dtd">
<svg version="1.1" id="图层_1" xmlns="http://www.w3.org/2000/svg" xmlns:xlink="http://www.w3.org/1999/xlink" x="0px" y="0px"
	 width="13.012px" height="13px" viewBox="0 0 13.012 13" enable-background="new 0 0 13.012 13" xml:space="preserve">
<path d="M11.641,3.273H9.605c0.262-0.332,0.418-0.75,0.418-1.204c0-1.075-0.874-1.95-1.949-1.95c-0.646,0-1.218,0.314-1.574,0.799
	C6.145,0.434,5.572,0.12,4.927,0.12c-1.075,0-1.949,0.875-1.949,1.95c0,0.454,0.156,0.872,0.417,1.204H1.359
	c-0.695,0-1.261,0.565-1.261,1.261v1.568c0,0.572,0.381,1.055,0.903,1.209v4.31c0,0.679,0.552,1.231,1.23,1.231h4.122
	c0.045,0.018,0.095,0.029,0.147,0.029s0.102-0.012,0.147-0.029h4.121c0.679,0,1.23-0.553,1.23-1.231v-4.31
	c0.521-0.154,0.903-0.637,0.903-1.209V4.534C12.902,3.838,12.336,3.273,11.641,3.273z M8.074,0.872c0.658,0,1.196,0.537,1.196,1.197
	c0,0.659-0.536,1.195-1.196,1.196H6.876V2.07c0-0.001,0-0.002,0-0.003C6.877,1.408,7.414,0.872,8.074,0.872z M4.927,0.872
	c0.66,0,1.196,0.537,1.197,1.196v1.197H4.929c-0.001,0-0.003,0-0.004,0C4.266,3.264,3.73,2.728,3.73,2.069
	C3.73,1.409,4.267,0.872,4.927,0.872z M0.851,6.102V4.534c0-0.279,0.229-0.508,0.508-0.508h4.765V6.61H1.359
	C1.08,6.61,0.851,6.381,0.851,6.102z M1.754,11.62V7.362h4.369v4.735H2.231C1.968,12.098,1.754,11.884,1.754,11.62z M10.768,12.098
	H6.876V7.362h4.368v4.258C11.245,11.884,11.032,12.098,10.768,12.098z M12.149,6.102c0,0.28-0.229,0.508-0.508,0.508H6.876V4.026
	h4.765c0.279,0,0.508,0.229,0.508,0.508V6.102z"/>
</svg>
